/* XPM */
static char *cat[] = {
/* columns rows colors chars-per-pixel */
"64 64 136 2 ",
"   c #000000",
".  c #010101",
"X  c #0C0A0A",
"o  c #121010",
"O  c #191717",
"+  c #1D1B1B",
"@  c #252626",
"#  c #282525",
"$  c #2E2A2A",
"%  c #312D2D",
"&  c #363232",
"*  c #3B3636",
"=  c #3C3738",
"-  c #3E3939",
";  c #413C3C",
":  c #453F40",
">  c #464041",
",  c #4A4444",
"<  c #4D4748",
"1  c #4F4849",
"2  c #524C4C",
"3  c #574F50",
"4  c #575050",
"5  c #5B5353",
"6  c #5E5758",
"7  c #5F5858",
"8  c #645C5C",
"9  c #685F5F",
"0  c #675F60",
"q  c #685F60",
"w  c #666060",
"e  c #6B6262",
"r  c #706767",
"t  c #706768",
"y  c #776E6F",
"u  c #766E6E",
"i  c #766D6D",
"p  c #746B6B",
"a  c #786E6E",
"s  c #786E6F",
"d  c #786F6F",
"f  c #796F6F",
"g  c #786E6F",
"h  c #786F70",
"j  c #796F70",
"k  c #796F70",
"l  c #797070",
"z  c #7A7070",
"x  c #7A7071",
"c  c #7A7171",
"v  c #7B7171",
"b  c #7A7172",
"n  c #7B7172",
"m  c #7A7272",
"M  c #7B7272",
"N  c #7B7373",
"B  c #7C7172",
"V  c #7C7272",
"C  c #7C7273",
"Z  c #7C7373",
"A  c #7D7373",
"S  c #7D7374",
"D  c #7E7374",
"F  c #7D7474",
"G  c #7E7474",
"H  c #7F7475",
"J  c #7F7575",
"K  c #7F7576",
"L  c #7F7676",
"P  c #7C7373",
"I  c #7F7778",
"U  c #807676",
"Y  c #807776",
"T  c #807677",
"R  c #817777",
"E  c #807677",
"W  c #827778",
"Q  c #827778",
"!  c #817878",
"~  c #827878",
"^  c #837879",
"/  c #837979",
"(  c #83797A",
")  c #827A7A",
"_  c #84797A",
"`  c #847A7A",
"'  c #857A7A",
"]  c #857B7A",
"[  c #847A7B",
"{  c #857A7B",
"}  c #847B7B",
"|  c #857B7B",
" . c #857B7C",
".. c #867B7C",
"X. c #857C7C",
"o. c #867C7C",
"O. c #877C7C",
"+. c #867C7D",
"@. c #877C7D",
"#. c #877D7D",
"$. c #847A7A",
"%. c #887D7E",
"&. c #887E7E",
"*. c #8A7F7F",
"=. c #887E7E",
"-. c #8B8081",
";. c #8B8282",
":. c #8C8182",
">. c #8E8485",
",. c #8B8283",
"<. c #8E8F8F",
"1. c #918686",
"2. c #918788",
"3. c #928888",
"4. c #958B8B",
"5. c #978C8C",
"6. c #948B8B",
"7. c #988E8F",
"8. c #9B9292",
"9. c #9C9192",
"0. c #9C9292",
"q. c #9E9494",
"w. c #9F9596",
"e. c #9E9D9D",
"r. c #A19797",
"t. c #A19798",
"y. c #A39999",
"u. c #A4999A",
"i. c #A49A9A",
"p. c #A59B9B",
"a. c #A69C9D",
"s. c #A49A9B",
"d. c #A99F9F",
"f. c #AAA0A0",
"g. c #B9B4B4",
"h. c #C0BABA",
/* pixels */
"                                                                                                                                ",
"                                                              ; - ; ; ; ; ; ; ; ; ; ; ; ;                                       ",
"                                                        ; * * 8 a u a f a a a u a a a a r ; * * - -                             ",
"                                                  * * ; e u r f ! ! *.! *.R ! a x *.! *.R u e u e u 5                           ",
"                                                > e q e R ! *.*.*.W u t t u u e e u u a ! *.*.! ! *.a 5                         ",
"                                              > r *.*.*.! *.a a a u q e 9 9 e r 9 e 9 e a u a ! *.! *.a 5                       ",
"                                            2 e *.! ! ! ! f r 9 8 2 5 5 4 5 3 3 5 5 5 4 2 5 e a x W ! R x 2                     ",
"                                          * 8 *.! ! *.*.W r 9 8 1 * * - - * ; * = = - * - ; 5 5 9 u x W *.W 2                   ",
"                                          * 8 ! ! ! ! ! e 9 9 1                             - - 4 9 9 u W ! W >                 ",
"                                          ; 4 e u ! R R e e <                                   ; 2 9 e u ! ! R 2               ",
"                                          * 2 e e e e e e e >                                     ; 2 e e *.! *.W 2             ",
"                                            ; 2 e 9 e e e 1                                       * 2 e r ! ! ! ! 2             ",
"                                              > > > < > >               * * =                       > 2 e u ! ! ! f 4           ",
"      * & &                                                         & > I ! e <                       ; 3 e u W ! *.5 &         ",
"    e u u u e                                                   % 4 u x 8.8.,.e 2                       ; 5 e u ! ! e 2         ",
"  - ! y.y.y.5.8                                               5 e x y.8.e 8 x *.5 *                       ; e e ! ! *.8 *       ",
"  1 x ! ! ! ,.5.6 5                                         4 ! d.5.t e ; 1 x ,.5 *                       > 5 e x ! ! 7 *       ",
"; h ! ! *.Q x ,.y.y.8 1                                   1 *.5.W 8 ; ; > x *.! 5 *                         ; 9 e x *.8 ;       ",
"- h ,.! ! e 2 x W *.r.d.e ;                             ; 2.5.R 8 ; > 9 e W R *.5 *                         ; 8 e x *.! e ;     ",
"- h ! ! a q 5 > > W *.*.8.u * - - ; - ; ; ; ; ; ; ; ; ; a ,.*.7 ; > 9 9 r W ! *.5 *                           ; 8 q x *.! e ;   ",
"; x ! &.u e e 8 8 > a ! *.W u u h a h h u a a u a a a a ! ! 5 ; > 9 e 9 9 W ! *.5 &                             ; 8 x ! *.t -   ",
"; a ! *.u e e e 9 ; a R W *.W *.! *.Q *.! *.! *.*.! *.*.W *.2 1 9 e e e W ! ! ! 5 *                             ; 5 x ! ! t -   ",
"; a *.! u 8 e 9 9 ; a *.R ! R R *.! ! Q ! ! ! ! R W W R R 8 ; 4 e e e e ! ! *.*.5 *                             * 5 u x *.t *   ",
"; a *.W x u e 8 2 8 W W ! *.R *.Q Q ! *.! Q *.Q ! *.! W ! 9 ; > 2 5 r f ! *.! ! 5 *                             * 8 e a *.x 5 ; ",
"; a ! W *.x 8 3 5 W W *.! W W *.*.! ! Q *.*.! ! W *.! *.! *.9 1 ; ; 8 *.! ! *.! 5 *                             * 2 8 h ! ! x ; ",
"; a ! ! *.u 2 5 ! ! *.R *.R ! ! Q Q Q ! ' R *.*.R W R *.*.R *.W 8 > > a R ! *.! 5 *                               * 2 a *.! a ; ",
"; e W *.R 9 3 ! *.R ! ! ! R *.R Q *.Q *.R *.W R R *.R W R R W R ! u > > W R R *.5 *                               * 3 a ! *.a ; ",
"  ; r *.f e u ! *.! *.R ! *.! *.Q W Q *.R ! *.! ! R ! *.*.W R *.! *.t ; 9 W *.R 5 *                               * 5 a Q *.a ; ",
"  ; r ! R R R *.W R *.! R *.! ! ! *.Q W *.! R R *.*.R W R *.R ! *.! u ; 9 W R *.5 *                               - 3 a ! ! a ; ",
"    > e *.! ! ! ! *.! *.R ! R ! *.W *.W Q ! ! *.W R ! *.R ! *.R R *.W a W R ! 8 ;                                 * 3 a *.! a ; ",
"    * 8 *.! *.! R W R R R *.*.! *.! ! W W *.R W *.! R *.R *.! R R R R *.R *.R 1                                   * 3 a ! *.a ; ",
"    * e *.*.! ! *.W W *.*.*.W R W *.W *.! R *.*.R ! W *.*.! ! *.*.R *.R R *.*.2     * * * - * * * - * *           * 2 a ! *.a ; ",
"    * e ! ! ! *.W *.h.8 * 9 *.R R ! ! ! *.W W R R 5.g.> ; a *.! *.R R R *.! R 2 * > 2 2 2 2 2 2 2 2 2 2 2         2 8 a *.! a ; ",
"    * 9 *.*.W *.*.! e.@ . ; W *.W *.*.R W *.*.! ! ,.<.. . 8 W W R R *.W R R *.9 3 9 a a a u a u u a r 9 8 >     1 8 r x *.R a ; ",
"    * 9 ! ! ! ! ! x X . . % a ! R R W W ! ! R ! *.e . . . 1 W *.R *.R W *.W R R R *.W ! W W R *.W ' a r r e > 1 8 r x *.R *.a ; ",
"    * 9 *.W *.Q ! ! $ + + ; a W *.W *.W *.W ! *.! u + + + 4 W R ! R *.*.*.R *.R W W *.R W R *.! W *.*.W *.W r r e W ! ! R W u ; ",
"    * 9 *.W ! Q ! *.r.y.d.! u R *.R R *.! R ! *.! *.y.y.y.a f W *.R W R R W *.R *.R W R *.W W R W R ' ' ! ! R R ! ! ! *.R a 8 ; ",
"    * e ! *.Q *.! ! *.*.*.*.W *.R R R *.! ! ! ! ! *.*.*.*.W W *.*.! *.R R ' R *.R R *.*.R *.*.R ' ' W R *.W *.W *.! ! ! x 8 ;   ",
"      ; 9 ! ! ! ! *.! ! ! R R ! *.W R R *.! *.! ! ! ! ! *.R R R R R W W *.R R W *.R R ! *.R R R W ' *.R ! R ! R ! ! *.x 8 ;     ",
"      * 8 W *.! ! ! ! *.! *.*.8 % W *.*.*.! ! 5 ; ! ! ! ' ' *.R *.W R *.' R *.W R ' *.R W R R *.' ' W W *.*.R W ! *.a 5 :       ",
"      * 8 *.Q Q *.*.! ! R W *.5 o *.R * $ e 2.> + h *.! ' R W W ! R R *.R *.! R W *.R R *.R R *.' _ *.W R R ! *.! ! u 2 *       ",
"        2 e *.! R ! *.W R ! R r ; ; * % % * ; & ; f ' R *.W R *.*.R R ! R *.R R R R *.R *.R ! R R R R *.R *.R *.*.! u 1 *       ",
"          2 u ! *.! R *.W *.W *.a $ % r a > # > U *.' ' *.R W *.R *.R *.R *.R *.*.R *.! R R *.W *.*.! ! ! ! R R W *.a 2 *       ",
"            2 ! W ! *.! R R *.*.R *.*.R R *.*.*.R ' R *.W ' R R *.R *.R ! u W R W *.R R ! *.R *.R ! *.R *.R *.W Q ! a 2 *       ",
"            2 x *.! W R *.R W R ! ! R *.R *.! R *.R ' R R ' *.W W W *.R a > a *.R ! R *.R *.R R R *.! R *.! R R ! *.a 2 *       ",
"              > W ! *.*.R *.*.R *.! ! R *.*.R R R ' R ' R *.R *.R R W a > 9 W R *.R R *.R ! W R R *.W R R ! *.*.W *.u 2 ;       ",
"                > W ! ! R R R W W W *.W R R R *.*.R *.R ! R R R ! r ; > 9 9 x *.*.R R *.R *.*.R *.R *.R *.! R R R R u 2 *       ",
"                  > a *.*.R ! *.! *.R *.W *.! *.*.R R *.*.3 ; > > 1 8 8 9 f ! R R R R ! R *.W *.R *.W R W R *.R ! *.u 2 *       ",
"                    1 2 1 1 1 1 1 1 1 1 1 1 1 1 1 1 1 1 1 4 8 5 8 8 9 9 x *.*.W R *.*.R *.R R R R R R *.*.R W W *.R a 2 *       ",
"                    * 2 3 4 5 2 3 3 3 5 3 3 4 4 5 3 3 3 4 9 9 9 u x f a ! ! ! R R *.*.! *.! ! W *.*.W R *.R R R *.R a 2 *       ",
"                    - 8 e e e e e e e e e e e e e e e e 9 9 a a a ! *.*.*.*.! *.! ! R R W W *.*.R ! W *.R R *.R *.f r 2 *       ",
"                    ; 5 e q e e q e q e 9 e 9 9 9 e 9 e 9 t W *.*.W R ! W ! R ! *.R ! *.R *.x x R R R *.R *.*.! R r 9 2 *       ",
"                    > 8 e q e q e q q e e 9 e e e 9 e 9 r W R R *.W *.! *.! *.! R ' R *.R a e 9 r W R W R *.R R W r 8 1         ",
"                  ; 8 e r r r e e r r q e e e e e r r r W R *.R W W W a ! *.W R *.R W W x e e q > 9 R *.W W *.W e e 1 *         ",
"                  ; 8 W Q Q Q Q *.! Q r e e e e u R R R *.! R *.W *.a > W Q W W W W f 9 e e e e > 3 a *.*.R R W r e 1 *         ",
"                  ; 8 h *.Q *.Q ! ! ! ! x ! ! ! W R ! *.R R ! R R ' u ; 9 e e e e r e e e q q e > 3 a ! R W W r e 9 2           ",
"                  - 8 W Q *.! ! x 1 > > < > > > > > 2 R *.W *.R *.*.t ; > ; 8 e 9 9 e 9 e q > > ; 4 e a ! *.R e e 1             ",
"                  ; 8 W ! ! *.u 1                     2 e W *.! W ' t ;     > > > > > > > > 5 ; ; 5 9 t R W r e e >             ",
"                    < e W ! ! e *                     ; 8 W ! ! W *.a *         * > 8 4 5 5 e > * > 5 a R u 9 e 2 >             ",
"                    - 5 x Q *.r *                     ; 8 u W ! *.a 4 ;         * 2 e e r q 3 ;   * 2 t u 9 9 3 ;               ",
"                    - 5 u W *.r -                     ; 2 9 u x a 9 * ;         * 2 r e 9 4 ;     * > 8 9 9 8 ;                 ",
"                    * 5 8 a h 8 -                       - 5 8 e 9 2 ;             2 5 5 5 ;         * 1 e 9 8 ;                 ",
"                      * 2 8 2 *                           * 4 8 2 =                 ; * *             > 8 5 ;                   ",
"                        ; ; ;                               ; ; ; *                                   ; ; ;                     "
};
